<svg width="87" height="87" viewBox="0 0 87 87" fill="none" xmlns="http://www.w3.org/2000/svg">
<circle cx="43.5" cy="43.5" r="43.5" fill="#FFA71C"/>
<path d="M66.75 56.5H47.8078C47.75 58.0477 46.6586 59 45.25 59H40.5C39.0398 59 37.9203 57.6352 37.9398 56.5H19.25C18.5625 56.5 18 57.0625 18 57.75V59C18 61.75 20.25 64 23 64H63C65.75 64 68 61.75 68 59V57.75C68 57.0625 67.4375 56.5 66.75 56.5ZM63 27.75C63 25.6875 61.3125 24 59.25 24H26.75C24.6875 24 23 25.6875 23 27.75V54H63V27.75ZM58 49H28V29H58V49Z" fill="white"/>
</svg>
