<svg width="87" height="87" viewBox="0 0 87 87" fill="none" xmlns="http://www.w3.org/2000/svg">
<circle cx="43.5" cy="43.5" r="43.5" fill="#2DC9FF"/>
<g clip-path="url(#clip0_78_25)">
<path d="M32.2727 33.4695C31.3703 33.7246 30.544 34.1964 29.8658 34.8439C29.1876 35.4914 28.6781 36.295 28.3815 37.1846L20 62.3282L21.3198 63.648L34.8063 50.1616C34.5376 49.5992 34.375 48.9774 34.375 48.3126C34.375 45.9308 36.3057 44.0001 38.6875 44.0001C41.0693 44.0001 43 45.9308 43 48.3126C43 50.6944 41.0693 52.6251 38.6875 52.6251C38.0227 52.6251 37.4009 52.4625 36.8385 52.1939L23.3521 65.6803L24.6719 67.0001L49.8155 58.6186C50.7051 58.322 51.5087 57.8125 52.1562 57.1343C52.8037 56.4561 53.2755 55.6298 53.5306 54.7274L57.375 41.1251L45.875 29.6251L32.2727 33.4695ZM64.7368 27.6638L59.3363 22.2633C57.6517 20.5787 54.9196 20.5787 53.235 22.2633L48.1543 27.344L59.6561 38.8458L64.7368 33.7651C66.4214 32.0805 66.4214 29.3493 64.7368 27.6638Z" fill="white"/>
</g>
<defs>
<clipPath id="clip0_78_25">
<rect width="46" height="46" fill="white" transform="translate(20 21)"/>
</clipPath>
</defs>
</svg>
